<svg xmlns="http://www.w3.org/2000/svg" xmlns:xlink="http://www.w3.org/1999/xlink" width="64" height="64" version="1.1" viewBox="0 0 48 48"><g id="surface11932657"><path style="stroke:none;fill-rule:nonzero;fill:#ecf0f1;fill-opacity:1" d="M 24 48 C 10.746094 48 0 37.253906 0 24 C 0 10.746094 10.746094 0 24 0 C 37.253906 0 48 10.746094 48 24 C 48 37.253906 37.253906 48 24 48 Z M 24 48"/><path style="stroke:none;fill-rule:nonzero;fill:#ff4081;fill-opacity:1" d="M 38.398438 34.398438 C 38.398438 36.609375 36.609375 38.398438 34.398438 38.398438 L 13.601562 38.398438 C 11.390625 38.398438 9.601562 36.609375 9.601562 34.398438 L 9.601562 13.601562 C 9.601562 11.390625 11.390625 9.601562 13.601562 9.601562 L 34.398438 9.601562 C 36.609375 9.601562 38.398438 11.390625 38.398438 13.601562 Z M 38.398438 34.398438"/><path style="stroke:none;fill-rule:nonzero;fill:#fff;fill-opacity:1" d="M 31.25 25.820312 C 30.6875 25.640625 30.078125 25.957031 29.898438 26.535156 C 29.242188 28.660156 28.046875 30.871094 27.503906 30.992188 C 27.101562 30.992188 26.515625 30.644531 25.9375 29.839844 C 27.277344 26.964844 27.980469 23.355469 27.980469 20.945312 C 27.980469 14.214844 26.28125 12.800781 24.855469 12.800781 C 21.847656 12.800781 21.8125 20.730469 21.8125 20.808594 C 21.8125 21.742188 21.847656 22.609375 21.910156 23.414062 C 21.496094 23.261719 21.019531 23.160156 20.496094 23.160156 C 17.40625 23.160156 16 26.207031 16 29.035156 C 16 31.703125 17.496094 34.398438 20.835938 34.398438 C 22.414062 34.398438 23.742188 33.367188 24.816406 31.824219 C 25.765625 32.8125 26.761719 33.179688 27.503906 33.179688 C 29.84375 33.179688 31.390625 28.992188 31.949219 27.191406 C 32.128906 26.617188 31.8125 26 31.25 25.820312 Z M 20.839844 32.210938 C 18.414062 32.210938 18.152344 29.992188 18.152344 29.035156 C 18.152344 28.886719 18.175781 25.347656 20.496094 25.347656 C 21.410156 25.347656 22.113281 26.054688 22.113281 26.054688 C 22.164062 26.109375 22.222656 26.160156 22.28125 26.203125 C 22.582031 27.726562 23.007812 28.941406 23.496094 29.90625 C 22.691406 31.296875 21.761719 32.210938 20.839844 32.210938 Z M 24.722656 27.140625 C 24.273438 25.597656 23.964844 23.523438 23.964844 20.808594 C 23.964844 18.308594 24.496094 15.957031 24.9375 15.152344 C 25.277344 15.667969 25.832031 17.269531 25.832031 20.945312 C 25.832031 22.894531 25.398438 25.15625 24.722656 27.140625 Z M 24.722656 27.140625"/></g></svg>