<svg xmlns="http://www.w3.org/2000/svg" xmlns:xlink="http://www.w3.org/1999/xlink" width="64" height="64" version="1.1" viewBox="0 0 48 48"><defs><linearGradient id="linear0" x1="28.667" x2="143.333" y1="84.59" y2="84.59" gradientTransform="matrix(0.27907,0,0,0.27907,0,0)" gradientUnits="userSpaceOnUse"><stop offset="0" style="stop-color:#4c4c4c;stop-opacity:1"/><stop offset="1" style="stop-color:#343434;stop-opacity:1"/></linearGradient><filter id="alpha" width="100%" height="100%" x="0%" y="0%" filterUnits="objectBoundingBox"><feColorMatrix in="SourceGraphic" type="matrix" values="0 0 0 0 1 0 0 0 0 1 0 0 0 0 1 0 0 0 1 0"/></filter><mask id="mask0"><g filter="url(#alpha)"><rect width="48" height="48" x="0" y="0" style="fill:#000;fill-opacity:.0509804;stroke:none"/></g></mask><clipPath id="clip1"><rect width="48" height="48"/></clipPath><g id="surface137968" clip-path="url(#clip1)"><path style="stroke:none;fill-rule:nonzero;fill:#000;fill-opacity:1" d="M 28.808594 38.398438 L 28.800781 33.757812 C 28.800781 33.007812 28.625 32.273438 28.285156 31.609375 C 32.800781 30.703125 34.996094 28.035156 34.996094 23.46875 C 34.996094 21.664062 34.464844 20.070312 33.414062 18.730469 C 33.496094 18.476562 33.554688 18.214844 33.589844 17.945312 C 33.742188 16.851562 33.570312 16.136719 33.4375 15.558594 L 33.414062 15.464844 C 33.265625 14.828125 33.085938 14.375 33.078125 14.355469 L 32.992188 14.128906 L 32.902344 13.90625 L 32.660156 13.878906 L 32.417969 13.855469 C 32.417969 13.855469 32.257812 13.835938 32.019531 13.835938 C 31.683594 13.835938 31.1875 13.871094 30.714844 14.03125 L 30.558594 14.082031 C 29.96875 14.28125 29.40625 14.46875 28.625 14.9375 C 28.398438 15.074219 28.144531 15.230469 27.878906 15.40625 C 26.667969 15.105469 25.363281 14.953125 24 14.953125 C 22.621094 14.953125 21.308594 15.105469 20.089844 15.410156 C 19.816406 15.234375 19.566406 15.074219 19.335938 14.9375 C 18.554688 14.46875 17.992188 14.28125 17.402344 14.082031 L 17.246094 14.03125 C 16.777344 13.871094 16.277344 13.835938 15.945312 13.835938 C 15.703125 13.835938 15.542969 13.855469 15.542969 13.855469 L 15.300781 13.878906 L 15.0625 13.902344 L 14.882812 14.355469 C 14.875 14.375 14.695312 14.832031 14.546875 15.46875 L 14.523438 15.558594 C 14.390625 16.136719 14.21875 16.851562 14.371094 17.945312 C 14.410156 18.222656 14.46875 18.496094 14.554688 18.753906 C 13.527344 20.089844 13.003906 21.671875 13.003906 23.46875 C 13.003906 28.023438 15.203125 30.691406 19.722656 31.601562 C 19.566406 31.914062 19.445312 32.242188 19.363281 32.582031 C 19.203125 32.636719 19.058594 32.671875 18.929688 32.691406 C 18.742188 32.722656 18.542969 32.734375 18.339844 32.734375 C 17.792969 32.734375 17.359375 32.628906 17.191406 32.527344 C 16.941406 32.378906 16.496094 31.945312 16.0625 31.3125 C 15.691406 30.773438 15.113281 30.066406 14.46875 29.773438 C 13.910156 29.515625 13.316406 29.371094 12.84375 29.371094 C 12.734375 29.371094 12.632812 29.378906 12.542969 29.394531 C 12.128906 29.457031 11.785156 29.6875 11.597656 30.015625 C 11.433594 30.300781 11.40625 30.636719 11.527344 30.929688 C 11.699219 31.367188 12.207031 31.71875 12.601562 31.933594 C 12.792969 32.039062 13.210938 32.429688 13.457031 32.820312 C 13.640625 33.113281 13.722656 33.324219 13.839844 33.613281 C 13.910156 33.785156 13.988281 33.972656 14.09375 34.199219 C 14.46875 35.019531 15.640625 35.738281 15.773438 35.820312 C 16.417969 36.203125 17.503906 36.328125 18.300781 36.363281 L 18.398438 36.367188 C 18.589844 36.367188 18.855469 36.347656 19.203125 36.308594 L 19.203125 38.402344 C 19.203125 38.824219 18.773438 38.921875 18.203125 38.910156 L 18.640625 39.058594 C 20.316406 39.65625 22.117188 40 24 40 C 25.882812 40 27.683594 39.65625 29.363281 39.058594 L 29.925781 38.847656 C 29.355469 38.832031 28.8125 38.738281 28.808594 38.398438 Z M 28.808594 38.398438"/></g><mask id="mask1"><g filter="url(#alpha)"><rect width="48" height="48" x="0" y="0" style="fill:#000;fill-opacity:.0705882;stroke:none"/></g></mask><clipPath id="clip2"><rect width="48" height="48"/></clipPath><g id="surface137971" clip-path="url(#clip2)"><path style="stroke:none;fill-rule:nonzero;fill:#000;fill-opacity:1" d="M 29.425781 39.039062 C 29.101562 39.074219 28.398438 38.949219 28.398438 38.402344 L 28.398438 33.757812 C 28.398438 32.882812 28.136719 32.039062 27.652344 31.316406 C 32.382812 30.550781 34.59375 28.042969 34.59375 23.46875 C 34.59375 21.675781 34.046875 20.113281 32.964844 18.808594 C 33.074219 18.519531 33.148438 18.210938 33.195312 17.890625 C 33.332031 16.871094 33.179688 16.222656 33.046875 15.652344 L 33.023438 15.558594 C 32.882812 14.949219 32.714844 14.519531 32.707031 14.503906 L 32.617188 14.277344 L 32.375 14.253906 C 32.375 14.253906 32.234375 14.238281 32.015625 14.238281 C 31.710938 14.238281 31.261719 14.265625 30.84375 14.410156 L 30.6875 14.460938 C 30.117188 14.65625 29.574219 14.835938 28.832031 15.28125 C 28.566406 15.4375 28.269531 15.625 27.949219 15.835938 C 26.722656 15.515625 25.394531 15.351562 24 15.351562 C 22.589844 15.351562 21.253906 15.515625 20.015625 15.839844 C 19.695312 15.628906 19.398438 15.441406 19.128906 15.28125 C 18.382812 14.835938 17.84375 14.652344 17.273438 14.460938 L 17.117188 14.410156 C 16.699219 14.265625 16.246094 14.238281 15.941406 14.238281 C 15.726562 14.238281 15.585938 14.253906 15.585938 14.253906 L 15.34375 14.277344 L 15.253906 14.503906 C 15.246094 14.523438 15.078125 14.949219 14.933594 15.558594 L 14.914062 15.652344 C 14.777344 16.222656 14.625 16.871094 14.765625 17.890625 C 14.808594 18.21875 14.890625 18.53125 15.003906 18.832031 C 13.941406 20.128906 13.40625 21.683594 13.40625 23.46875 C 13.40625 28.03125 15.617188 30.539062 20.355469 31.3125 C 20.039062 31.785156 19.816406 32.316406 19.703125 32.882812 C 19.4375 32.988281 19.199219 33.054688 18.992188 33.089844 C 18.78125 33.121094 18.5625 33.136719 18.339844 33.136719 C 17.789062 33.136719 17.257812 33.03125 16.988281 32.871094 C 16.636719 32.664062 16.140625 32.140625 15.730469 31.539062 C 15.449219 31.132812 14.890625 30.40625 14.300781 30.136719 C 13.792969 29.90625 13.261719 29.769531 12.84375 29.769531 C 12.753906 29.769531 12.675781 29.777344 12.605469 29.789062 C 12.3125 29.835938 12.070312 29.992188 11.941406 30.214844 C 11.839844 30.394531 11.824219 30.601562 11.894531 30.78125 C 12.039062 31.140625 12.566406 31.460938 12.789062 31.585938 C 13.058594 31.730469 13.523438 32.179688 13.792969 32.609375 C 13.992188 32.933594 14.089844 33.167969 14.210938 33.464844 C 14.277344 33.632812 14.351562 33.8125 14.453125 34.035156 C 14.71875 34.609375 15.535156 35.210938 15.976562 35.476562 C 16.578125 35.839844 17.699219 35.9375 18.3125 35.964844 L 18.402344 35.96875 C 18.640625 35.96875 19.042969 35.933594 19.597656 35.859375 L 19.597656 38.402344 C 19.597656 39.023438 18.804688 39.050781 18.613281 39.050781 C 18.585938 39.050781 19.015625 39.195312 19.015625 39.195312 C 20.585938 39.710938 22.257812 40 24 40 C 25.742188 40 27.414062 39.710938 28.984375 39.199219 C 28.984375 39.199219 29.449219 39.035156 29.425781 39.039062 Z M 29.425781 39.039062"/></g></defs><g id="surface137963"><path style="stroke:none;fill-rule:nonzero;fill:#ecf0f1;fill-opacity:1" d="M 24 48 C 10.746094 48 0 37.253906 0 24 C 0 10.746094 10.746094 0 24 0 C 37.253906 0 48 10.746094 48 24 C 48 37.253906 37.253906 48 24 48 Z M 24 48"/><path style="stroke:none;fill-rule:nonzero;fill:url(#linear0)" d="M 24 8 C 15.164062 8 8 15.164062 8 24 C 8 31.109375 12.640625 37.128906 19.054688 39.210938 L 28.945312 39.210938 C 35.359375 37.128906 40 31.109375 40 24 C 40 15.164062 32.835938 8 24 8 Z M 24 8"/><use mask="url(#mask0)" xlink:href="#surface137968"/><use mask="url(#mask1)" xlink:href="#surface137971"/><path style="stroke:none;fill-rule:nonzero;fill:#fff;fill-opacity:1" d="M 34.195312 23.46875 C 34.195312 21.621094 33.570312 20.085938 32.5 18.886719 C 32.617188 18.625 32.738281 18.277344 32.796875 17.835938 C 32.9375 16.835938 32.773438 16.238281 32.636719 15.652344 C 32.5 15.0625 32.335938 14.652344 32.335938 14.652344 C 32.335938 14.652344 31.597656 14.574219 30.972656 14.789062 C 30.347656 15 29.8125 15.164062 29.035156 15.625 C 28.671875 15.839844 28.308594 16.078125 28.019531 16.269531 C 26.785156 15.929688 25.429688 15.753906 24 15.753906 C 22.558594 15.753906 21.191406 15.929688 19.945312 16.273438 C 19.65625 16.082031 19.289062 15.84375 18.925781 15.625 C 18.148438 15.164062 17.613281 15 16.988281 14.789062 C 16.363281 14.574219 15.625 14.648438 15.625 14.648438 C 15.625 14.648438 15.460938 15.0625 15.324219 15.648438 C 15.1875 16.238281 15.023438 16.835938 15.164062 17.835938 C 15.222656 18.285156 15.347656 18.640625 15.46875 18.902344 C 14.421875 20.097656 13.804688 21.621094 13.804688 23.464844 C 13.804688 28.253906 16.390625 30.4375 21.101562 31.015625 C 20.554688 31.59375 20.183594 32.339844 20.058594 33.167969 C 19.75 33.304688 19.394531 33.429688 19.050781 33.480469 C 18.167969 33.617188 17.234375 33.480469 16.785156 33.214844 C 16.335938 32.949219 15.800781 32.347656 15.402344 31.765625 C 15.0625 31.273438 14.574219 30.699219 14.132812 30.5 C 13.550781 30.234375 12.984375 30.132812 12.667969 30.183594 C 12.351562 30.234375 12.203125 30.464844 12.269531 30.632812 C 12.335938 30.800781 12.652344 31.050781 12.984375 31.234375 C 13.320312 31.414062 13.835938 31.914062 14.136719 32.398438 C 14.46875 32.9375 14.535156 33.25 14.820312 33.867188 C 15.019531 34.300781 15.699219 34.839844 16.183594 35.132812 C 16.601562 35.382812 17.433594 35.523438 18.335938 35.566406 C 18.644531 35.578125 19.382812 35.488281 20 35.402344 L 20 38.402344 C 20 38.910156 19.535156 39.300781 19.046875 39.210938 C 20.605469 39.734375 22.265625 40 24 40 C 25.734375 40 27.394531 39.734375 28.953125 39.210938 C 28.46875 39.300781 28 38.914062 28 38.402344 L 28 33.757812 C 28 32.695312 27.578125 31.734375 26.902344 31.019531 C 31.578125 30.457031 34.195312 28.324219 34.195312 23.46875 Z M 13.792969 30.980469 C 13.667969 30.917969 13.601562 30.800781 13.644531 30.71875 C 13.683594 30.636719 13.820312 30.621094 13.941406 30.683594 C 14.066406 30.746094 14.132812 30.863281 14.089844 30.945312 C 14.046875 31.03125 13.914062 31.042969 13.792969 30.980469 Z M 14.761719 31.585938 C 14.695312 31.65625 14.558594 31.632812 14.449219 31.535156 C 14.34375 31.4375 14.308594 31.300781 14.371094 31.230469 C 14.4375 31.160156 14.578125 31.183594 14.683594 31.28125 C 14.792969 31.378906 14.824219 31.515625 14.761719 31.585938 Z M 15.363281 32.585938 C 15.28125 32.644531 15.144531 32.589844 15.054688 32.464844 C 14.964844 32.339844 14.960938 32.195312 15.042969 32.136719 C 15.125 32.078125 15.261719 32.132812 15.351562 32.257812 C 15.4375 32.378906 15.445312 32.527344 15.363281 32.585938 Z M 16.230469 33.339844 C 16.175781 33.429688 16.019531 33.433594 15.878906 33.347656 C 15.742188 33.265625 15.675781 33.125 15.730469 33.035156 C 15.785156 32.945312 15.941406 32.941406 16.082031 33.023438 C 16.21875 33.109375 16.285156 33.25 16.230469 33.339844 Z M 17.050781 34.074219 C 16.878906 34.054688 16.753906 33.949219 16.765625 33.835938 C 16.78125 33.726562 16.929688 33.65625 17.101562 33.675781 C 17.269531 33.695312 17.398438 33.804688 17.382812 33.914062 C 17.367188 34.023438 17.21875 34.097656 17.050781 34.074219 Z M 18.371094 34.265625 C 18.1875 34.257812 18.046875 34.152344 18.054688 34.035156 C 18.0625 33.917969 18.214844 33.832031 18.394531 33.839844 C 18.578125 33.851562 18.71875 33.957031 18.710938 34.074219 C 18.703125 34.191406 18.550781 34.277344 18.371094 34.265625 Z M 19.617188 34.140625 C 19.421875 34.140625 19.265625 34.039062 19.265625 33.917969 C 19.265625 33.792969 19.421875 33.691406 19.617188 33.691406 C 19.808594 33.691406 19.96875 33.792969 19.96875 33.917969 C 19.96875 34.039062 19.808594 34.140625 19.617188 34.140625 Z M 19.617188 34.140625"/></g></svg>