<?xml version="1.0" encoding="UTF-8"?>
<svg xmlns="http://www.w3.org/2000/svg" xmlns:xlink="http://www.w3.org/1999/xlink" width="48pt" height="48pt" viewBox="0 0 48 48" version="1.1">
<defs>
<radialGradient id="radial0" gradientUnits="userSpaceOnUse" cx="72.75564" cy="137.69997" fx="72.75564" fy="137.69997" r="128.71046" gradientTransform="matrix(0.27907,0,0,0.27907,0,0)">
<stop offset="0" style="stop-color:rgb(100%,86.666667%,33.333333%);stop-opacity:1;"/>
<stop offset="0.328" style="stop-color:rgb(100%,32.941176%,24.705882%);stop-opacity:1;"/>
<stop offset="0.348" style="stop-color:rgb(98.823529%,32.156863%,27.058824%);stop-opacity:1;"/>
<stop offset="0.504" style="stop-color:rgb(90.196078%,27.843137%,44.313725%);stop-opacity:1;"/>
<stop offset="0.643" style="stop-color:rgb(83.529412%,24.313725%,56.862745%);stop-opacity:1;"/>
<stop offset="0.761" style="stop-color:rgb(80%,22.352941%,64.313725%);stop-opacity:1;"/>
<stop offset="0.841" style="stop-color:rgb(78.431373%,21.568627%,67.058824%);stop-opacity:1;"/>
</radialGradient>
<radialGradient id="radial1" gradientUnits="userSpaceOnUse" cx="50.98618" cy="33.08184" fx="50.98618" fy="33.08184" r="85.46393" gradientTransform="matrix(0.27907,0,0,0.27907,0,0)">
<stop offset="0" style="stop-color:rgb(25.490196%,40.784314%,78.823529%);stop-opacity:1;"/>
<stop offset="0.999" style="stop-color:rgb(25.490196%,40.784314%,78.823529%);stop-opacity:0;"/>
</radialGradient>
</defs>
<g id="surface11931692">
<path style=" stroke:none;fill-rule:nonzero;fill:rgb(92.54902%,94.117647%,94.509804%);fill-opacity:1;" d="M 24 48 C 10.746094 48 0 37.253906 0 24 C 0 10.746094 10.746094 0 24 0 C 37.253906 0 48 10.746094 48 24 C 48 37.253906 37.253906 48 24 48 Z M 24 48 "/>
<path style=" stroke:none;fill-rule:nonzero;fill:url(#radial0);" d="M 32.011719 38.390625 L 16.011719 38.40625 C 12.492188 38.410156 9.609375 35.535156 9.605469 32.011719 L 9.59375 16.011719 C 9.589844 12.492188 12.464844 9.609375 15.984375 9.605469 L 31.984375 9.59375 C 35.503906 9.589844 38.386719 12.464844 38.390625 15.984375 L 38.40625 31.984375 C 38.410156 35.507812 35.535156 38.390625 32.011719 38.390625 Z M 32.011719 38.390625 "/>
<path style=" stroke:none;fill-rule:nonzero;fill:url(#radial1);" d="M 32.011719 38.390625 L 16.011719 38.40625 C 12.492188 38.410156 9.609375 35.535156 9.605469 32.011719 L 9.59375 16.011719 C 9.589844 12.492188 12.464844 9.609375 15.984375 9.605469 L 31.984375 9.59375 C 35.503906 9.589844 38.386719 12.464844 38.390625 15.984375 L 38.40625 31.984375 C 38.410156 35.507812 35.535156 38.390625 32.011719 38.390625 Z M 32.011719 38.390625 "/>
<path style=" stroke:none;fill-rule:nonzero;fill:rgb(100%,100%,100%);fill-opacity:1;" d="M 24 29.601562 C 20.914062 29.601562 18.398438 27.089844 18.398438 24 C 18.398438 20.910156 20.914062 18.398438 24 18.398438 C 27.085938 18.398438 29.601562 20.910156 29.601562 24 C 29.601562 27.089844 27.085938 29.601562 24 29.601562 Z M 24 20 C 21.792969 20 20 21.792969 20 24 C 20 26.207031 21.792969 28 24 28 C 26.207031 28 28 26.207031 28 24 C 28 21.792969 26.207031 20 24 20 Z M 24 20 "/>
<path style=" stroke:none;fill-rule:nonzero;fill:rgb(100%,100%,100%);fill-opacity:1;" d="M 31.199219 18 C 31.199219 18.664062 30.664062 19.199219 30 19.199219 C 29.335938 19.199219 28.800781 18.664062 28.800781 18 C 28.800781 17.335938 29.335938 16.800781 30 16.800781 C 30.664062 16.800781 31.199219 17.335938 31.199219 18 Z M 31.199219 18 "/>
<path style=" stroke:none;fill-rule:nonzero;fill:rgb(100%,100%,100%);fill-opacity:1;" d="M 28.800781 34.398438 L 19.199219 34.398438 C 16.113281 34.398438 13.601562 31.886719 13.601562 28.800781 L 13.601562 19.199219 C 13.601562 16.113281 16.113281 13.601562 19.199219 13.601562 L 28.800781 13.601562 C 31.886719 13.601562 34.398438 16.113281 34.398438 19.199219 L 34.398438 28.800781 C 34.398438 31.886719 31.886719 34.398438 28.800781 34.398438 Z M 19.199219 15.199219 C 16.996094 15.199219 15.199219 16.996094 15.199219 19.199219 L 15.199219 28.800781 C 15.199219 31.003906 16.996094 32.800781 19.199219 32.800781 L 28.800781 32.800781 C 31.003906 32.800781 32.800781 31.003906 32.800781 28.800781 L 32.800781 19.199219 C 32.800781 16.996094 31.003906 15.199219 28.800781 15.199219 Z M 19.199219 15.199219 "/>
</g>
</svg>
