<svg xmlns="http://www.w3.org/2000/svg" xmlns:xlink="http://www.w3.org/1999/xlink" width="64" height="64" version="1.1" viewBox="0 0 48 48"><defs><filter id="alpha" width="100%" height="100%" x="0%" y="0%" filterUnits="objectBoundingBox"><feColorMatrix in="SourceGraphic" type="matrix" values="0 0 0 0 1 0 0 0 0 1 0 0 0 0 1 0 0 0 1 0"/></filter><mask id="mask0"><g filter="url(#alpha)"><rect width="48" height="48" x="0" y="0" style="fill:#000;fill-opacity:.0509804;stroke:none"/></g></mask><clipPath id="clip1"><rect width="48" height="48"/></clipPath><g id="surface11932138" clip-path="url(#clip1)"><path style="stroke:none;fill-rule:nonzero;fill:#000;fill-opacity:1" d="M 28.800781 34.398438 L 28.800781 26.320312 C 28.800781 24.96875 28.144531 24.164062 27.046875 24.164062 C 26.394531 24.164062 25.914062 24.53125 25.625 25.253906 C 25.609375 25.304688 25.589844 25.511719 25.597656 26.144531 L 25.601562 34.398438 L 20 34.398438 L 20 19.199219 L 25.601562 19.199219 L 25.601562 20.046875 C 26.417969 19.484375 27.421875 19.199219 28.589844 19.199219 C 32.226562 19.199219 34.398438 21.675781 34.398438 25.820312 L 34.398438 34.398438 Z M 13.601562 34.398438 L 13.601562 19.199219 L 16.367188 19.199219 C 14.761719 19.199219 13.601562 18.023438 13.601562 16.398438 C 13.601562 14.777344 14.78125 13.601562 16.410156 13.601562 C 18.019531 13.601562 19.167969 14.746094 19.199219 16.382812 C 19.199219 18.019531 18.015625 19.199219 16.386719 19.199219 L 19.199219 19.199219 L 19.199219 34.398438 Z M 13.601562 34.398438"/></g><mask id="mask1"><g filter="url(#alpha)"><rect width="48" height="48" x="0" y="0" style="fill:#000;fill-opacity:.0705882;stroke:none"/></g></mask><clipPath id="clip2"><rect width="48" height="48"/></clipPath><g id="surface11932141" clip-path="url(#clip2)"><path style="stroke:none;fill-rule:nonzero;fill:#000;fill-opacity:1" d="M 29.199219 34 L 29.199219 26.320312 C 29.199219 24.742188 28.375 23.761719 27.046875 23.761719 C 26.011719 23.761719 25.5 24.492188 25.253906 25.105469 C 25.1875 25.261719 25.195312 25.894531 25.199219 26.164062 L 25.199219 34 L 20.398438 34 L 20.398438 19.601562 L 25.199219 19.601562 L 25.199219 20.910156 C 25.835938 20.253906 26.859375 19.601562 28.589844 19.601562 C 31.976562 19.601562 34 21.925781 34 25.820312 L 34 34 Z M 14 34 L 14 19.601562 L 18.800781 19.601562 L 18.800781 34 Z M 16.367188 18.800781 C 14.996094 18.800781 14 17.789062 14 16.398438 C 14 15.007812 15.015625 14 16.410156 14 C 17.789062 14 18.773438 14.984375 18.800781 16.390625 C 18.800781 17.789062 17.785156 18.800781 16.386719 18.800781 Z M 16.367188 18.800781"/></g></defs><g id="surface11932133"><path style="stroke:none;fill-rule:nonzero;fill:#ecf0f1;fill-opacity:1" d="M 24 48 C 10.746094 48 0 37.253906 0 24 C 0 10.746094 10.746094 0 24 0 C 37.253906 0 48 10.746094 48 24 C 48 37.253906 37.253906 48 24 48 Z M 24 48"/><path style="stroke:none;fill-rule:nonzero;fill:#0078d4;fill-opacity:1" d="M 38.398438 34.398438 C 38.398438 36.609375 36.609375 38.398438 34.398438 38.398438 L 13.601562 38.398438 C 11.390625 38.398438 9.601562 36.609375 9.601562 34.398438 L 9.601562 13.601562 C 9.601562 11.390625 11.390625 9.601562 13.601562 9.601562 L 34.398438 9.601562 C 36.609375 9.601562 38.398438 11.390625 38.398438 13.601562 Z M 38.398438 34.398438"/><use mask="url(#mask0)" xlink:href="#surface11932138"/><use mask="url(#mask1)" xlink:href="#surface11932141"/><path style="stroke:none;fill-rule:nonzero;fill:#fff;fill-opacity:1" d="M 14.398438 20 L 18.398438 20 L 18.398438 33.601562 L 14.398438 33.601562 Z M 16.386719 18.398438 L 16.367188 18.398438 C 15.171875 18.398438 14.398438 17.511719 14.398438 16.398438 C 14.398438 15.265625 15.195312 14.398438 16.410156 14.398438 C 17.628906 14.398438 18.378906 15.265625 18.398438 16.398438 C 18.398438 17.507812 17.628906 18.398438 16.386719 18.398438 Z M 33.601562 33.601562 L 29.601562 33.601562 L 29.601562 26.320312 C 29.601562 24.5625 28.621094 23.363281 27.046875 23.363281 C 25.84375 23.363281 25.195312 24.171875 24.878906 24.953125 C 24.765625 25.234375 24.800781 26.007812 24.800781 26.398438 L 24.800781 33.601562 L 20.800781 33.601562 L 20.800781 20 L 24.800781 20 L 24.800781 22.09375 C 25.375 21.199219 26.28125 20 28.589844 20 C 31.453125 20 33.597656 21.800781 33.597656 25.820312 Z M 33.601562 33.601562"/></g></svg>