<svg xmlns="http://www.w3.org/2000/svg" xmlns:xlink="http://www.w3.org/1999/xlink" width="64" height="64" version="1.1" viewBox="0 0 48 48"><defs><linearGradient id="linear0" x1="50.097" x2="132.135" y1="43.743" y2="125.781" gradientTransform="matrix(0.27907,0,0,0.27907,0,0)" gradientUnits="userSpaceOnUse"><stop offset="0" style="stop-color:#2aa4f4;stop-opacity:1"/><stop offset="1" style="stop-color:#007ad9;stop-opacity:1"/></linearGradient></defs><g id="surface137461"><path style="stroke:none;fill-rule:nonzero;fill:#ecf0f1;fill-opacity:1" d="M 24 48 C 10.746094 48 0 37.253906 0 24 C 0 10.746094 10.746094 0 24 0 C 37.253906 0 48 10.746094 48 24 C 48 37.253906 37.253906 48 24 48 Z M 24 48"/><path style="stroke:none;fill-rule:nonzero;fill:url(#linear0)" d="M 40.863281 14.242188 C 39.699219 14.757812 38.445312 15.105469 37.121094 15.265625 C 38.464844 14.46875 39.5 13.195312 39.988281 11.691406 C 38.730469 12.425781 37.335938 12.96875 35.851562 13.253906 C 34.667969 12 32.976562 11.222656 31.105469 11.222656 C 27.507812 11.222656 24.59375 14.109375 24.59375 17.671875 C 24.59375 18.175781 24.652344 18.667969 24.765625 19.144531 C 19.355469 18.871094 14.558594 16.300781 11.347656 12.398438 C 10.785156 13.351562 10.464844 14.46875 10.464844 15.648438 C 10.464844 17.886719 11.613281 19.859375 13.359375 21.019531 C 12.292969 20.988281 11.289062 20.691406 10.410156 20.214844 C 10.410156 20.234375 10.410156 20.261719 10.410156 20.289062 C 10.410156 23.417969 12.65625 26.023438 15.628906 26.617188 C 15.085938 26.765625 14.511719 26.851562 13.917969 26.851562 C 13.5 26.851562 13.089844 26.800781 12.691406 26.730469 C 13.519531 29.289062 15.921875 31.15625 18.769531 31.214844 C 16.542969 32.941406 13.738281 33.976562 10.6875 33.976562 C 10.160156 33.976562 9.644531 33.945312 9.132812 33.882812 C 12.019531 35.710938 15.441406 36.777344 19.113281 36.777344 C 31.085938 36.777344 37.636719 26.949219 37.636719 18.417969 C 37.636719 18.136719 37.628906 17.859375 37.617188 17.585938 C 38.894531 16.683594 39.996094 15.542969 40.863281 14.242188"/></g></svg>